<svg xmlns="http://www.w3.org/2000/svg" width="24" height="24" viewBox="0 0 24 24">
  <path d="M 0 0 h 24 v 24 H 0 z" fill="none"/>
  <path stroke="hsla(0, 0%, 95%, 0.9)" 
  stroke-linejoin="round" stroke-width="0.67" stroke-linecap="round" 
  fill="hsla(0, 0%, 15%, 0.9)" d="M 20.5 11 H 19 V 7 c 0 -1.1 -0.9 -2 -2 -2 h -4 V 3.5 C 13 2.1 11.9 1 10.5 1 S 8 2.1 8 3.5 V 5 H 4 c -1.1 0 -2 0.9 -2 2 v 3.8 H 3.5 c 1.5 0 2.7 1.2 2.7 2.7 s -1.2 2.7 -2.7 2.7 H 2 V 20 c 0 1.1 0.9 2 2 2 h 3.8 v -1.5 c 0 -1.5 1.2 -2.7 2.7 -2.7 c 1.5 0 2.7 1.2 2.7 2.7 V 22 H 17 c 1.1 0 2 -0.9 2 -2 v -4 h 1.5 c 1.4 0 2.5 -1.1 2.5 -2.5 S 21.9 11 20.5 11 z"/>
</svg>